<?xml version="1.0" encoding="utf-8"?>
<svg xmlns="http://www.w3.org/2000/svg" xmlns:xlink="http://www.w3.org/1999/xlink" style="margin: auto; background: none; display: block; shape-rendering: auto;" width="100px" height="100px" viewBox="0 0 100 100" preserveAspectRatio="xMidYMid">
<g transform="translate(50 50)">
<g>
<animateTransform attributeName="transform" type="rotate" values="0;45" keyTimes="0;1" dur="0.2s" repeatCount="indefinite"></animateTransform><path d="M28.26216552212516 -6.5 L39.26216552212516 -6.5 L39.26216552212516 6.5 L28.26216552212516 6.5 A29 29 0 0 1 24.5805629694239 15.388174813998784 L24.5805629694239 15.388174813998784 L32.35873756247592 23.166349407050806 L23.16634940705081 32.35873756247592 L15.388174813998786 24.5805629694239 A29 29 0 0 1 6.499999999999998 28.26216552212516 L6.499999999999998 28.26216552212516 L6.499999999999999 39.26216552212516 L-6.499999999999995 39.26216552212516 L-6.499999999999996 28.26216552212516 A29 29 0 0 1 -15.388174813998784 24.5805629694239 L-15.388174813998784 24.5805629694239 L-23.166349407050806 32.35873756247592 L-32.35873756247592 23.16634940705081 L-24.580562969423898 15.388174813998786 A29 29 0 0 1 -28.26216552212516 6.5 L-28.26216552212516 6.5 L-39.26216552212516 6.500000000000002 L-39.26216552212516 -6.499999999999991 L-28.26216552212516 -6.499999999999993 A29 29 0 0 1 -24.5805629694239 -15.388174813998784 L-24.5805629694239 -15.388174813998784 L-32.35873756247592 -23.166349407050806 L-23.166349407050813 -32.35873756247592 L-15.38817481399879 -24.580562969423898 A29 29 0 0 1 -6.500000000000002 -28.26216552212516 L-6.500000000000002 -28.26216552212516 L-6.5000000000000036 -39.26216552212516 L6.499999999999989 -39.26216552212516 L6.499999999999991 -28.26216552212516 A29 29 0 0 1 15.38817481399878 -24.5805629694239 L15.38817481399878 -24.5805629694239 L23.166349407050802 -32.35873756247592 L32.35873756247592 -23.166349407050813 L24.580562969423898 -15.38817481399879 A29 29 0 0 1 28.262165522125155 -6.5000000000000036 M0 -18A18 18 0 1 0 0 18 A18 18 0 1 0 0 -18" fill="#000000"></path></g></g>
<!-- [ldio] generated by https://loading.io/ --></svg>